<?xml version="1.0" encoding="UTF-8" standalone="no"?>
<!-- Created with Inkscape (http://www.inkscape.org/) -->

<svg
   width="512"
   height="512"
   viewBox="0 0 135.46667 135.46667"
   version="1.1"
   id="svg1"
   inkscape:export-filename="icon-favicon.svg"
   inkscape:export-xdpi="96"
   inkscape:export-ydpi="96"
   xmlns:inkscape="http://www.inkscape.org/namespaces/inkscape"
   xmlns:sodipodi="http://sodipodi.sourceforge.net/DTD/sodipodi-0.dtd"
   xmlns="http://www.w3.org/2000/svg"
   xmlns:svg="http://www.w3.org/2000/svg">
  <sodipodi:namedview
     id="namedview1"
     pagecolor="#ffffff"
     bordercolor="#000000"
     borderopacity="0.25"
     inkscape:showpageshadow="2"
     inkscape:pageopacity="0.0"
     inkscape:pagecheckerboard="0"
     inkscape:deskcolor="#d1d1d1"
     inkscape:document-units="px">
    <inkscape:page
       x="0"
       y="0"
       width="135.46667"
       height="135.46667"
       id="page2"
       margin="0"
       bleed="0" />
  </sodipodi:namedview>
  <defs
     id="defs1" />
  <g
     inkscape:label="Camada 1"
     inkscape:groupmode="layer"
     id="layer1">
    <g
       id="g17"
       style="fill:none;fill-opacity:1;stroke:#2563eb;stroke-width:10;stroke-dasharray:none;stroke-opacity:1"
       transform="matrix(0.77409104,0,0,0.77409104,-15.181004,-40.284648)">
      <path
         id="path15"
         style="fill:none;fill-opacity:1;stroke:#2563eb;stroke-width:10;stroke-dasharray:none;stroke-opacity:1"
         d="m 34.918282,91.006848 c -7.935398,0.04528 -8.025504,0.135909 -8.421708,8.422225 l -1.086755,79.603407 c 0.138256,9.97946 0.167302,10.3682 8.965344,10.59522 l 55.264071,0.27182 c 0.50061,-0.64991 -1.311369,12.44216 -5.529767,15.34325 0.08516,0.24053 -7.522678,0.35846 -11.324904,0.24544 -2.227949,2e-4 -4.322082,1.5688 -4.322025,3.50366 -2e-5,3.58944 2.767634,5.45392 3.939294,3.50263 0.0084,0.007 -1.712108,0.40484 -0.166789,0.79596 23.610477,0.10826 45.716847,-0.0393 68.554867,-0.57013 0.0619,0 3.61252,-0.0128 3.89345,-2.95561 7e-5,-2.35789 -2.50182,-4.10659 -4.33004,-4.11095 l -11.38609,-0.0272 c -3.74071,-2.6713 -5.53616,-15.58863 -4.74447,-15.59846 l 54.14411,-0.67238 c 9.06226,0.0288 9.34154,-0.30323 9.50898,-9.23716 l 0.27182,-79.33159 c 0.14459,-9.612328 0.0547,-9.646277 -10.86755,-9.508984 z"
         sodipodi:nodetypes="ccccccccccccscsccccc" />
    </g>
    <text
       xml:space="preserve"
       style="font-style:normal;font-variant:normal;font-weight:bold;font-stretch:normal;font-size:78.1321px;font-family:sans-serif;-inkscape-font-specification:'sans-serif Bold';text-align:start;writing-mode:lr-tb;direction:ltr;text-anchor:start;display:inline;fill:#2563eb;fill-opacity:1;stroke:#2563eb;stroke-width:1.54818;stroke-dasharray:none;stroke-opacity:1"
       x="39.460438"
       y="96.618881"
       id="text16"><tspan
         sodipodi:role="line"
         id="tspan16"
         style="font-style:normal;font-variant:normal;font-weight:normal;font-stretch:normal;font-family:'Javanese Text';-inkscape-font-specification:'Javanese Text';fill:#2563eb;fill-opacity:1;stroke:#2563eb;stroke-width:1.54818;stroke-dasharray:none;stroke-opacity:1"
         x="39.460438"
         y="96.618881">G</tspan></text>
    <path
       style="display:inline;fill:none;fill-opacity:1;stroke:#2563eb;stroke-width:3.00514;stroke-dasharray:none;stroke-opacity:1"
       d="m 56.102145,10.944245 c 10.447727,7.826337 9.659889,5.801869 15.125619,-5.0803652 5.082767,11.9382932 6.297643,11.1770292 14.406055,5.5282092 l -2.880767,12.464186 -23.302492,0.01981 z"
       id="path17"
       sodipodi:nodetypes="cccccc" />
  </g>
</svg>
