<?xml version="1.0" encoding="UTF-8" standalone="no"?>
<!-- Created with Inkscape (http://www.inkscape.org/) -->

<svg
   width="140"
   height="50"
   viewBox="0 0 37.041666 13.229167"
   version="1.1"
   id="svg1"
   inkscape:export-filename="LOGO-NAVBAR-MOBLIE.svg"
   inkscape:export-xdpi="96"
   inkscape:export-ydpi="96"
   xmlns:inkscape="http://www.inkscape.org/namespaces/inkscape"
   xmlns:sodipodi="http://sodipodi.sourceforge.net/DTD/sodipodi-0.dtd"
   xmlns="http://www.w3.org/2000/svg"
   xmlns:svg="http://www.w3.org/2000/svg">
  <sodipodi:namedview
     id="namedview1"
     pagecolor="#ffffff"
     bordercolor="#000000"
     borderopacity="0.25"
     inkscape:showpageshadow="2"
     inkscape:pageopacity="0.0"
     inkscape:pagecheckerboard="0"
     inkscape:deskcolor="#d1d1d1"
     inkscape:document-units="mm">
    <inkscape:page
       x="0"
       y="0"
       width="37.041664"
       height="13.229167"
       id="page2"
       margin="0"
       bleed="0" />
  </sodipodi:namedview>
  <defs
     id="defs1" />
  <g
     inkscape:label="Camada 1"
     inkscape:groupmode="layer"
     id="layer1">
    <g
       id="g2"
       transform="matrix(0.62751003,0,0,0.62751003,13.490747,2.2424245)">
      <g
         id="g1">
        <g
           id="g17"
           style="fill:none;fill-opacity:1;stroke:#2563eb;stroke-width:10;stroke-dasharray:none;stroke-opacity:1"
           transform="matrix(0.12727688,0,0,0.12727688,-23.764305,-10.440122)">
          <path
             id="path15"
             style="fill:none;fill-opacity:1;stroke:#2563eb;stroke-width:10;stroke-dasharray:none;stroke-opacity:1"
             d="m 34.918282,91.006848 c -7.935398,0.04528 -8.025504,0.135909 -8.421708,8.422225 l -1.086755,79.603407 c 0.138256,9.97946 0.167302,10.3682 8.965344,10.59522 l 55.264071,0.27182 c 0.50061,-0.64991 -1.311369,12.44216 -5.529767,15.34325 0.08516,0.24053 -7.522678,0.35846 -11.324904,0.24544 -2.227949,2e-4 -4.322082,1.5688 -4.322025,3.50366 -2e-5,3.58944 2.767634,5.45392 3.939294,3.50263 0.0084,0.007 -1.712108,0.40484 -0.166789,0.79596 23.610477,0.10826 45.716847,-0.0393 68.554867,-0.57013 0.0619,0 3.61252,-0.0128 3.89345,-2.95561 7e-5,-2.35789 -2.50182,-4.10659 -4.33004,-4.11095 l -11.38609,-0.0272 c -3.74071,-2.6713 -5.53616,-15.58863 -4.74447,-15.59846 l 54.14411,-0.67238 c 9.06226,0.0288 9.34154,-0.30323 9.50898,-9.23716 l 0.27182,-79.33159 c 0.14459,-9.612328 0.0547,-9.646277 -10.86755,-9.508984 z"
             sodipodi:nodetypes="ccccccccccccscsccccc" />
        </g>
        <text
           xml:space="preserve"
           style="font-style:normal;font-variant:normal;font-weight:bold;font-stretch:normal;font-size:12.8466px;font-family:sans-serif;-inkscape-font-specification:'sans-serif Bold';text-align:start;writing-mode:lr-tb;direction:ltr;text-anchor:start;display:inline;fill:#2563eb;fill-opacity:1;stroke:#2563eb;stroke-width:0.254553;stroke-dasharray:none;stroke-opacity:1"
           x="-14.780101"
           y="12.069697"
           id="text16"><tspan
             sodipodi:role="line"
             id="tspan16"
             style="font-style:normal;font-variant:normal;font-weight:normal;font-stretch:normal;font-family:'Javanese Text';-inkscape-font-specification:'Javanese Text';fill:#2563eb;fill-opacity:1;stroke:#2563eb;stroke-width:0.254553;stroke-dasharray:none;stroke-opacity:1"
             x="-14.780101"
             y="12.069697">G</tspan></text>
      </g>
      <path
         style="display:inline;fill:none;fill-opacity:1;stroke:#2563eb;stroke-width:0.494108;stroke-dasharray:none;stroke-opacity:1"
         d="m -12.043854,-2.017012 c 1.717828,1.2868141 1.58829,0.953949 2.486971,-0.8353196 0.835714,1.9629071 1.035467,1.8377386 2.368661,0.9089542 l -0.47366,2.0493743 -3.831421,0.00328 z"
         id="path17"
         sodipodi:nodetypes="cccccc" />
    </g>
    <text
       xml:space="preserve"
       style="font-size:3.93352px;line-height:0.9;font-family:'Javanese Text';-inkscape-font-specification:'Javanese Text';text-align:start;writing-mode:lr-tb;direction:ltr;text-anchor:start;fill:#2563eb;fill-opacity:1;stroke:#2563eb;stroke-width:0.278753;stroke-dasharray:none;stroke-opacity:1"
       x="25.513262"
       y="7.3668594"
       id="text1"><tspan
         sodipodi:role="line"
         id="tspan1"
         style="font-style:normal;font-variant:normal;font-weight:normal;font-stretch:normal;font-size:6.2698px;line-height:0.9;font-family:Arial;-inkscape-font-specification:Arial;text-align:center;text-anchor:middle;fill:#2563eb;fill-opacity:1;stroke:#2563eb;stroke-width:0.278753;stroke-dasharray:none;stroke-opacity:1"
         x="25.513262"
         y="7.3668594">GUSTA</tspan><tspan
         sodipodi:role="line"
         style="font-style:normal;font-variant:normal;font-weight:normal;font-stretch:normal;font-size:3.93352px;line-height:0.9;font-family:Arial;-inkscape-font-specification:Arial;text-align:center;text-anchor:middle;fill:#2563eb;fill-opacity:1;stroke:#2563eb;stroke-width:0.278753;stroke-dasharray:none;stroke-opacity:1"
         x="25.513262"
         y="11.314114"
         id="tspan2">WEBSITES</tspan></text>
  </g>
</svg>
